<svg id="bfc1aee8-3658-4112-917a-1cccb04eb212" data-name="Calque 1" xmlns="http://www.w3.org/2000/svg" viewBox="0 0 152 152"><rect width="152" height="152" rx="10" style="fill:#fff"/><path d="M101.492,58.526l-1.377-3.384a1.21,1.21,0,0,1,.025-.969L101.3,51.7a.87.87,0,0,0-.146-.969c-.6-.644-1.893-2-3.977-4a5.309,5.309,0,0,0-6.5-.591L85.3,39.988H66.7l-5.379,6.147a5.309,5.309,0,0,0-6.5.591c-2.084,2-3.377,3.356-3.977,4a.87.87,0,0,0-.146.969l1.164,2.478a1.21,1.21,0,0,1,.025.969l-1.377,3.384a3.6,3.6,0,0,0-.142,2.285l6.779,25.3a7.4,7.4,0,0,0,2.928,4.165L73.96,99.919a3.572,3.572,0,0,0,4.08,0l13.887-9.644a7.4,7.4,0,0,0,2.928-4.165l6.779-25.3A3.6,3.6,0,0,0,101.492,58.526ZM83.914,81.65c-1.033.738-2.926,2.111-4.219,3.175-1.125.924-2.239,2-2.946,2.706a1.055,1.055,0,0,1-1.5,0c-.707-.707-1.821-1.782-2.946-2.706-1.293-1.064-3.186-2.437-4.219-3.175a.551.551,0,0,1,.076-.94l3.461-1.755,3.754-1.685a1.528,1.528,0,0,1,1.246,0l3.754,1.685,3.46,1.755A.55.55,0,0,1,83.914,81.65Zm11.315-19.6L88.322,69.19a1.356,1.356,0,0,0-.28,1.455l1.176,2.869s.666,2.888-2.666,5.251a2.048,2.048,0,0,1-2.084.155l-3.182-1.577a5.01,5.01,0,0,1-1.173-.805l-2.931-2.693a1.271,1.271,0,0,1,.147-1.988L83.168,67.9a.838.838,0,0,0,.266-1.094l-2.32-4.266a2.566,2.566,0,0,1,1.419-3.653l7.84-2.7-6.422-.576-.042,0-4.74,1.365a.911.911,0,0,0-.643,1.041l1.76,9.541L76,68.8,71.713,67.56l1.761-9.541a.911.911,0,0,0-.643-1.041l-4.74-1.365-.042,0-6.422.576,7.84,2.7a2.567,2.567,0,0,1,1.419,3.653L68.566,66.8a.838.838,0,0,0,.266,1.094l5.839,3.959a1.271,1.271,0,0,1,.146,1.988l-2.93,2.693a5.029,5.029,0,0,1-1.174.806L67.532,78.92a2.048,2.048,0,0,1-2.084-.155c-3.332-2.363-2.666-5.251-2.666-5.251l1.175-2.869a1.354,1.354,0,0,0-.28-1.455l-6.906-7.138a2.954,2.954,0,0,1-.228-3.843l6.373-8.378,6.709,1.155,5.709-1.9a2.107,2.107,0,0,1,1.332,0l5.709,1.9,6.709-1.155,6.373,8.378A2.954,2.954,0,0,1,95.229,62.052Z" style="fill:#f8c18c"/></svg>