<?xml version="1.0" encoding="utf-8"?>
<!-- Generator: Adobe Illustrator 26.0.2, SVG Export Plug-In . SVG Version: 6.00 Build 0)  -->
<svg version="1.1" id="b9f3ada6-d84c-4731-a7b5-8c87d4bae798"
	 xmlns="http://www.w3.org/2000/svg" xmlns:xlink="http://www.w3.org/1999/xlink" x="0px" y="0px" viewBox="0 0 152 152"
	 style="enable-background:new 0 0 152 152;" xml:space="preserve">
<style type="text/css">
	.st0{fill:#FFFFFF;}
	.st1{fill:#E85E5C;}
	.st2{fill:#F9DE81;}
	.st3{fill:#98DC9A;}
	.st4{fill:#9ABEFF;}
</style>
<path class="st0" d="M10,0h132c5.5,0,10,4.5,10,10v132c0,5.5-4.5,10-10,10H10c-5.5,0-10-4.5-10-10V10C0,4.5,4.5,0,10,0z"/>
<path class="st1" d="M88.6,88h-4.8l-7.4,7.5L54.1,72.7c-2.3-2.2-3.6-5.3-3.6-8.5c0-3.1,1.2-6.1,3.4-8.3s5.2-3.4,8.3-3.4
	c6.5,0,11.7,5.3,11.7,11.7h5l0,0l0,0c0-3.2,1.3-6.3,3.6-8.5c4.7-4.5,12.1-4.3,16.6,0.4s4.3,12.1-0.4,16.7l-0.1,0.1V78h2l1.7-1.7
	c3.2-3.1,5.1-7.3,5.2-11.7s-1.6-8.7-4.7-12c-6.4-6.7-17-6.9-23.7-0.5c-1,1-1.9,2.1-2.7,3.3c-3-4.8-8.2-8-14.3-8
	c-4.5,0-8.7,1.7-11.8,4.9c-3.2,3.2-4.9,7.4-4.9,11.8c0,4.6,1.9,9,5.1,12.1l25.9,26.4l12.2-12.4C88.6,90.2,88.6,88,88.6,88z"/>
<g>
	<rect x="55.1" y="65.4" class="st2" width="19.1" height="5"/>
</g>
<g>
	<rect x="62.2" y="58.4" class="st2" width="5" height="19.1"/>
</g>
<g>
	<rect x="69.6" y="73" class="st3" width="19.1" height="5"/>
</g>
<g>
	<rect x="76.6" y="65.9" class="st3" width="5" height="19.1"/>
</g>
<g>
	<rect x="84.1" y="80.5" class="st4" width="19.1" height="5"/>
</g>
<g>
	<rect x="91.1" y="73.5" class="st4" width="5" height="19.1"/>
</g>
</svg>
