<?xml version="1.0" encoding="utf-8"?>
<!-- Generator: Adobe Illustrator 26.0.2, SVG Export Plug-In . SVG Version: 6.00 Build 0)  -->
<svg version="1.1" id="add5dae3-4f71-4f34-9c86-3bcbf537b1dc"
	 xmlns="http://www.w3.org/2000/svg" xmlns:xlink="http://www.w3.org/1999/xlink" x="0px" y="0px" viewBox="0 0 152 152"
	 style="enable-background:new 0 0 152 152;" xml:space="preserve">
<style type="text/css">
	.st0{fill:#FFFFFF;}
	.st1{fill:#E85E5C;}
</style>
<path class="st0" d="M10,0h132c5.5,0,10,4.5,10,10v132c0,5.5-4.5,10-10,10H10c-5.5,0-10-4.5-10-10V10C0,4.5,4.5,0,10,0z"/>
<path class="st0" d="M152,40.2"/>
<path class="st1" d="M73.3,44c-7.3,0-14.4,2.8-19.8,7.8H75l-1.3,7.8H55.8v8.3h16.4L71,75.6H55.8v5.3c0,1.7,1.4,3,3,3H75l-1.3,7.8
	H55.8c-2.2,0-4.3-0.6-6.1-1.8c9.3,13,27.4,16.1,40.5,6.8s16.1-27.4,6.8-40.5C91.5,48.5,82.7,44,73.3,44z"/>
</svg>
