<?xml version="1.0" encoding="utf-8"?>
<!-- Generator: Adobe Illustrator 26.0.2, SVG Export Plug-In . SVG Version: 6.00 Build 0)  -->
<svg version="1.1" id="bdb5afa7-15d6-4412-96ab-eda32f30a185"
	 xmlns="http://www.w3.org/2000/svg" xmlns:xlink="http://www.w3.org/1999/xlink" x="0px" y="0px" viewBox="0 0 152 152"
	 style="enable-background:new 0 0 152 152;" xml:space="preserve">
<style type="text/css">
	.st0{fill:#54668C;}
	.st1{fill:#E0F4E0;}
</style>
<path class="st0" d="M10,0h132c5.5,0,10,4.5,10,10v132c0,5.5-4.5,10-10,10H10c-5.5,0-10-4.5-10-10V10C0,4.5,4.5,0,10,0z"/>
<path class="st1" d="M90.8,58V47.7c-16.3,0-29.5,13.2-29.6,29.6h6.7c-4.3,5-6.7,11.5-6.7,18.1h10.2c0-9.8,7.9-17.7,17.7-17.7V67.4
	c-6.3,0-12.4,2.1-17.4,6.1C73.7,64.5,81.6,58,90.8,58z"/>
</svg>
