<?xml version="1.0" encoding="utf-8"?>
<!-- Generator: Adobe Illustrator 26.0.2, SVG Export Plug-In . SVG Version: 6.00 Build 0)  -->
<svg version="1.1" id="a70c75d9-edd9-40e8-bb83-cf87fcbbda02"
	 xmlns="http://www.w3.org/2000/svg" xmlns:xlink="http://www.w3.org/1999/xlink" x="0px" y="0px" viewBox="0 0 152 152"
	 style="enable-background:new 0 0 152 152;" xml:space="preserve">
<style type="text/css">
	.st0{fill:#98DC9A;}
	.st1{fill:#BD9AFF;}
	.st2{fill:#FFFFFF;}
	.st3{fill:#8C72BD;}
	.st4{fill:#4A4A4A;}
	.st5{fill:#ABABFF;}
	.st6{fill:#FCECDC;}
	.st7{fill:none;stroke:#4A4A4A;stroke-linecap:round;stroke-linejoin:round;}
</style>
<path class="st0" d="M10,0h132c5.5,0,10,4.5,10,10v132c0,5.5-4.5,10-10,10H10c-5.5,0-10-4.5-10-10V10C0,4.5,4.5,0,10,0z"/>
<path class="st1" d="M94.1,63.4c0,0,13.6-1.8,13.9,6.1S95.9,71.8,91.7,69"/>
<path class="st2" d="M60.2,58.8c0,0-4.5-14.1,8.9-16.6c0.7-0.1,1.3,0.3,1.4,1c0.1,0.4-0.1,0.9-0.4,1.2c-2.4,1.8-4.2,4.9-1.7,9.8"/>
<path class="st2" d="M94.1,66.6c0,0,10.9-9.8,1-19.4c-0.6-0.6-1.5-0.5-2.1,0.1c-0.4,0.4-0.5,1-0.3,1.5c1.1,3.4,1.1,7.5-4,9.5"/>
<path class="st3" d="M85,55.2c5.5,1.3,9.5,6.1,9.9,11.8c1.1,10.1-3.5,13.2-3.5,13.2l-32.1-7.1l-1.2-2c0,0-2.2-22.2,17.7-17.4"/>
<path class="st1" d="M60.6,58.3c0,0-10.4-6.3-13.7,0s3,8.7,11.1,6.8"/>
<path class="st2" d="M63.7,70.5c0,0-1.4-10.8,4-10.4s6.1,6.6,2.5,13.5"/>
<path class="st4" d="M64.8,70.3c0,0-1-7.8,2.9-7.6s4.4,4.8,1.8,9.8"/>
<path class="st2" d="M80.1,75.5c0,0-0.9-13.1,6.9-12.3s1,13,1,13"/>
<path class="st4" d="M81.3,74.1c0,0-0.6-8.8,4.6-8.2s0.7,8.7,0.7,8.7"/>
<path class="st5" d="M71.9,50.5c-0.1,0,2.7,0.4,3.2,3c0,0-4.1-1.3-5.7,2.1c1.7-1,3.8-1.2,5.7-0.4c0,0-4.4,0.9-2.1,5.2
	c0,0,1.2-4.5,5.1-4.3s5.3,4.3,5.3,4.3s0.5-3.9-2.5-5c2.3,0,4.5,0.8,6.2,2.3c-0.9-2.2-3.1-3.7-5.5-3.8c0,0,1.4-1.2,4.5-0.1
	c-1.8-1.5-4.3-1.9-6.5-1.1c0,0-0.2-2.2-0.9-2.4c-0.7,0.5-1.1,1.4-1.1,2.3C77.6,52.6,75.3,49.4,71.9,50.5z"/>
<path class="st6" d="M74.9,73.8c-4.9-1.2-7.7-5.8-15.3-5.1s-10.1,11.7-4.8,20.1s22.1,14.6,36,5.9c13-8.1,5.8-24.2-2.7-22.1
	C79.1,74.7,75.8,74,74.9,73.8z"/>
<path class="st1" d="M62.9,72.9c0,0,3.7-0.6,4.5,4.5C67.8,80.9,59,74.4,62.9,72.9z"/>
<path class="st1" d="M88.1,76.5c0,0-3.5-2-6.1,2.8C80.2,82.6,91.2,79.6,88.1,76.5z"/>
<path class="st2" d="M61.2,77.2c-1.2-1.1-3.1-1-4.2,0.3c-0.2,0.2-0.4,0.5-0.5,0.8c-0.5,1.3-0.3,2.8,0.6,3.9c2.5,3.5,5.1,3.2,6,1.9
	c0.9-1.3,0.9-3.6-1.5-6.3C61.5,77.5,61.4,77.4,61.2,77.2z"/>
<path class="st2" d="M89,81.3c1.4-0.9,3.2-0.6,4.1,0.8c0.2,0.3,0.3,0.5,0.4,0.8c0.4,1.4-0.1,2.8-1.1,3.8c-2.9,3.2-5.5,2.5-6.2,1.1
	s-0.4-3.7,2.2-6.1C88.6,81.6,88.8,81.5,89,81.3z"/>
<path class="st7" d="M64.4,86.3c0,0,5.8,11.4,19.4,3.1"/>
<path class="st7" d="M83.3,88c0.1,1.1,0.8,2.1,1.9,2.4"/>
<path class="st7" d="M65.3,85c-0.4,1-1.4,1.7-2.5,1.8"/>
<path class="st6" d="M105,69.2c0-2.3-1.6-3.2-3.4-3.4s-4.8,0.3-4.8,1.8s1.4,2,3.5,2.9S105,71.3,105,69.2z"/>
<path class="st6" d="M57.5,61.1c0-1.2-1.4-3.2-4-3.5s-3.9,1.3-4.1,2.5s0.3,2.9,3.3,2.9S57.5,62.5,57.5,61.1z"/>
</svg>
