<?xml version="1.0" encoding="utf-8"?>
<!-- Generator: Adobe Illustrator 26.0.2, SVG Export Plug-In . SVG Version: 6.00 Build 0)  -->
<svg version="1.1" id="be419f7b-67cd-4640-9f62-1ec9e3e845c0"
	 xmlns="http://www.w3.org/2000/svg" xmlns:xlink="http://www.w3.org/1999/xlink" x="0px" y="0px" viewBox="0 0 152 152"
	 style="enable-background:new 0 0 152 152;" xml:space="preserve">
<style type="text/css">
	.st0{fill:#56595B;}
	.st1{fill:#FFFFFF;}
</style>
<path class="st0" d="M10,0h132c5.5,0,10,4.5,10,10v132c0,5.5-4.5,10-10,10H10c-5.5,0-10-4.5-10-10V10C0,4.5,4.5,0,10,0z"/>
<path class="st1" d="M76.7,79.7c1.5,0,3,0,4.4,0.1c-0.5,6-1.7,12-3.8,17.7h17c-1.9-5.4-3.1-11-3.7-16.7c5.1,0.8,10.2,2.1,15.1,3.8
	v-21c-4.9,1.8-10,3-15.1,3.8c0.5-5.8,1.7-11.5,3.7-17h-17c2.1,5.8,3.3,11.9,3.8,18c-1.4,0.1-2.9,0.1-4.4,0.1h-1.4
	c-1.5,0-3,0-4.4-0.1c0.5-6.1,1.7-12.2,3.8-18h-17c1.9,5.5,3.2,11.2,3.7,17c-5.2-0.8-10.2-2.1-15.1-3.8v21c4.9-1.8,10-3,15.1-3.8
	c-0.5,5.7-1.8,11.3-3.7,16.7h17c-2-5.7-3.3-11.7-3.8-17.7c1.4-0.1,2.9-0.1,4.4-0.1C75.3,79.7,76.7,79.7,76.7,79.7z"/>
</svg>
