<?xml version="1.0" encoding="utf-8"?>
<!-- Generator: Adobe Illustrator 26.0.2, SVG Export Plug-In . SVG Version: 6.00 Build 0)  -->
<svg version="1.1" id="a9a5dfb2-591a-44ed-bf54-483318d8fe70"
	 xmlns="http://www.w3.org/2000/svg" xmlns:xlink="http://www.w3.org/1999/xlink" x="0px" y="0px" viewBox="0 0 152 151.9"
	 style="enable-background:new 0 0 152 151.9;" xml:space="preserve">
<style type="text/css">
	.st0{fill:#FFFFFF;}
	.st1{fill:#DC505E;}
	.st2{fill:#4A4A4A;}
	.st3{fill:none;stroke:#D2D2D2;stroke-width:7;stroke-linecap:round;stroke-linejoin:round;}
</style>
<path class="st0" d="M152,46.2"/>
<path class="st1" d="M152,15.9c0-5.5-4.5-10-10-10H10c-5.5,0-10,4.5-10,10v41.6h152V15.9z"/>
<path class="st0" d="M0,57.5v84.4c0,5.5,4.5,10,10,10h132c5.5,0,10-4.5,10-10V57.5H0z"/>
<path class="st2" d="M92.8,79.6v41.8H86v-17.8H66v17.8h-6.8V79.6H66v17.7h20V79.6H92.8z"/>
<path class="st0" d="M55.6,31v15.2h-2.5v-6.4h-7.3v6.4h-2.5V31h2.5v6.4h7.3V31H55.6z"/>
<path class="st0" d="M58.8,41.3V31h2.5v9.8c0.2,1.9,1.9,3.4,3.8,3.2c1.7-0.1,3.1-1.5,3.2-3.2V31h2.5v10.2c0,2.9-2.6,5.1-6,5.1
	S58.8,44.2,58.8,41.3z"/>
<path class="st0" d="M85.5,46.2h-2.8l-4-6.4h-2.1v6.4h-2.5V31H80c2.4,0,4.4,2,4.4,4.4c0,0,0,0,0,0.1c0,2-1.3,3.7-3.3,4.1L85.5,46.2z
	 M79.7,37.7c1.2,0,2.2-0.9,2.2-2.1s-0.9-2.2-2.1-2.2c0,0-0.1,0-0.1,0h-3.2v4.3H79.7z"/>
<path class="st0" d="M98.6,46.2h-2.8l-4-6.4h-2.1v6.4h-2.5V31h5.9c2.4,0,4.4,2,4.4,4.4c0,0,0,0,0,0.1c0,2-1.3,3.7-3.3,4.1L98.6,46.2
	z M92.8,37.7c1.2,0,2.2-0.9,2.2-2.1s-0.9-2.2-2.1-2.2c0,0-0.1,0-0.1,0h-3.2v4.3H92.8z"/>
<path class="st0" d="M105.4,39v7.2H103v-7.1l-5.3-8h2.9l3.6,5.7l3.7-5.7h2.9L105.4,39z"/>
<line class="st3" x1="26.7" y1="3.5" x2="26.7" y2="17.2"/>
<line class="st3" x1="59.3" y1="3.5" x2="59.3" y2="17.2"/>
<line class="st3" x1="92" y1="3.5" x2="92" y2="17.2"/>
<line class="st3" x1="124.6" y1="3.5" x2="124.6" y2="17.2"/>
</svg>
