<?xml version="1.0" encoding="utf-8"?>
<!-- Generator: Adobe Illustrator 26.0.2, SVG Export Plug-In . SVG Version: 6.00 Build 0)  -->
<svg version="1.1" id="b18f889f-4859-4213-af23-1ce85c99237d"
	 xmlns="http://www.w3.org/2000/svg" xmlns:xlink="http://www.w3.org/1999/xlink" x="0px" y="0px" viewBox="0 0 152 152"
	 style="enable-background:new 0 0 152 152;" xml:space="preserve">
<style type="text/css">
	.st0{fill:#DC505E;}
	.st1{fill:#FFFFFF;}
</style>
<path class="st0" d="M10,0h132c5.5,0,10,4.5,10,10v132c0,5.5-4.5,10-10,10H10c-5.5,0-10-4.5-10-10V10C0,4.5,4.5,0,10,0z"/>
<path class="st1" d="M91.1,44.8c-4-0.1-7.9,1.2-11,3.7l-1.9-1.4c-1-0.8-2.4-0.8-3.4,0L56.5,60.5c-0.8,0.5-1.2,1.4-1.2,2.3v27.1
	c0,1.6,1.3,2.9,2.9,2.9h18C73.8,90,65.7,79.4,64,68.3c0,0-0.4-2.5,1.1-2.8c2.5-0.5,4,6.8,7.6,6.8c3.3,0,5.1-2.1,7.3-4.4
	c2.2-2.3,4.2-2,2.9,1.3c-1.2,3.2-7.9,10.8-2.3,23.6h14c1.6,0,2.9-1.3,2.9-2.9v-25c4.8-1.7,8.1-5.4,8.1-9.5
	C105.6,49.5,99.1,44.8,91.1,44.8z M74.3,69.2c-2.1,0-3.8-2.2-3.8-4.9s1.7-4.9,3.9-4.9c2.2,0,3.9,2.2,3.9,4.9
	C78.2,67,76.5,69.2,74.3,69.2L74.3,69.2z M91.1,62.7c-2,0-4.1-0.3-5.9-1.1c-1.6,1.1-3.2,2-5.1,2.5c1.3-1.4,1.5-3.6,1.4-5.1
	c-0.9-1-1.4-2.3-1.4-3.6c0-4.1,4.9-7.4,11-7.4s11,3.3,11,7.4S97.1,62.7,91.1,62.7z"/>
</svg>
