<?xml version="1.0" encoding="utf-8"?>
<!-- Generator: Adobe Illustrator 26.0.2, SVG Export Plug-In . SVG Version: 6.00 Build 0)  -->
<svg version="1.1" id="bf46afe9-f65f-4244-b118-9e14c898c188"
	 xmlns="http://www.w3.org/2000/svg" xmlns:xlink="http://www.w3.org/1999/xlink" x="0px" y="0px" viewBox="0 0 152 152"
	 style="enable-background:new 0 0 152 152;" xml:space="preserve">
<style type="text/css">
	.st0{fill:#ECECEC;}
	.st1{fill:#56595B;}
</style>
<path class="st0" d="M10,0h132c5.5,0,10,4.5,10,10v132c0,5.5-4.5,10-10,10H10c-5.5,0-10-4.5-10-10V10C0,4.5,4.5,0,10,0z"/>
<rect y="97.7" class="st1" width="19.4" height="8.4"/>
<rect x="68.5" y="97.7" class="st1" width="83.5" height="8.4"/>
<path class="st1" d="M40.9,103.2v2.9H26.6l8-9.4c2.3-2.7,2.7-3.5,2.7-4.6c0.1-1.5-1-2.8-2.5-2.9c-0.1,0-0.3,0-0.4,0
	c-1.5-0.1-2.8,1-2.9,2.5c0,0.2,0,0.4,0,0.5h-3.2c-0.2-3.6,2.7-6,6.2-6c3.3,0,5.9,2.2,5.9,5.5c0,2.3-0.8,3.6-3.6,6.9l-4,4.6H40.9z"/>
<path class="st1" d="M46.4,89.4h-3.1v-2.9h6.3v19.6h-3.1V89.4H46.4z"/>
<path class="st1" d="M55.6,89.7c0-1.9,1.6-3.5,3.5-3.5s3.5,1.6,3.5,3.5s-1.6,3.5-3.5,3.5C57.2,93.2,55.6,91.7,55.6,89.7L55.6,89.7z
	 M61.1,89.7c0-1.1-0.9-2-2-2s-2,0.9-2,2s0.9,2,2,2l0,0C60.2,91.7,61.1,90.9,61.1,89.7C61.1,89.8,61.1,89.7,61.1,89.7z"/>
<g>
	<path class="st1" d="M57.4,45.1v27.3H53V53.5l-8.5,18.9h-3l-8.4-18.8v18.8h-4.5V45.1h4.8L43,66.5l9.6-21.4H57.4z"/>
	<path class="st1" d="M63.2,48.4c0-1.5,1.2-2.6,2.6-2.6s2.6,1.1,2.6,2.6c0,1.4-1.2,2.6-2.6,2.6C64.4,50.9,63.2,49.8,63.2,48.4z
		 M63.6,54.2h4.3v18.2h-4.3C63.6,72.4,63.6,54.2,63.6,54.2z"/>
	<path class="st1" d="M101.3,57.6v1.1c0,7.7-6.3,14-14,14c-7.8,0-14-6.3-14-14s6.2-14,14-14c5.3,0,9.9,3,12.3,7.3l-3.8,2.1
		c-1.6-3-4.8-5-8.5-5c-5.4,0-9.7,4.2-9.7,9.6s4.2,9.6,9.7,9.6c4.5,0,8.2-2.9,9.3-7h-9.3v-3.7C87.3,57.6,101.3,57.6,101.3,57.6z"/>
	<path class="st1" d="M105,63.3c0-5.3,4.1-9.5,9.8-9.5s9.8,4.1,9.8,9.5s-4.1,9.5-9.8,9.5S105,68.6,105,63.3z M120.3,63.3
		c0-3.1-2.4-5.5-5.5-5.5s-5.5,2.4-5.5,5.5c0,3.1,2.4,5.5,5.5,5.5S120.3,66.3,120.3,63.3z"/>
</g>
</svg>
