<?xml version="1.0" encoding="utf-8"?>
<!-- Generator: Adobe Illustrator 26.0.2, SVG Export Plug-In . SVG Version: 6.00 Build 0)  -->
<svg version="1.1" id="bdf39714-a005-437b-898e-668face1d760"
	 xmlns="http://www.w3.org/2000/svg" xmlns:xlink="http://www.w3.org/1999/xlink" x="0px" y="0px" viewBox="0 0 152 152"
	 style="enable-background:new 0 0 152 152;" xml:space="preserve">
<style type="text/css">
	.st0{fill:#728DBE;}
	.st1{fill:#FFFFFF;}
</style>
<path class="st0" d="M10,0h132c5.5,0,10,4.5,10,10v132c0,5.5-4.5,10-10,10H10c-5.5,0-10-4.5-10-10V10C0,4.5,4.5,0,10,0z"/>
<g>
	<path class="st1" d="M50.5,73.1v8.9h-3.3v-8.6c0-1.5-1.1-2.7-2.5-2.7c-1.5,0-2.5,1.3-2.5,2.7v8.6h-3.3v-8.6c0-1.5-1.1-2.7-2.5-2.7
		c-1.5,0-2.5,1.3-2.5,2.7v8.6h-3.3V68h3.3v1.4c0.9-1.1,2.1-1.7,3.5-1.7c1.6,0,3,0.9,3.9,2.2c0.9-1.4,2.4-2.2,4.2-2.2
		C48.4,67.7,50.5,70.1,50.5,73.1z"/>
	<path class="st1" d="M52.8,75c0-4.1,3.2-7.3,7.5-7.3c4.4,0,7.5,3.2,7.5,7.3c0,4.1-3.2,7.3-7.5,7.3C55.9,82.3,52.8,79.1,52.8,75z
		 M64.5,75c0-2.4-1.9-4.2-4.2-4.2c-2.4,0-4.2,1.9-4.2,4.2c0,2.4,1.8,4.2,4.2,4.2C62.6,79.3,64.5,77.4,64.5,75z"/>
	<path class="st1" d="M90.4,73.1v8.9h-3.3v-8.6c0-1.5-1.1-2.7-2.5-2.7c-1.5,0-2.5,1.3-2.5,2.7v8.6h-3.3v-8.6c0-1.5-1.1-2.7-2.5-2.7
		c-1.5,0-2.5,1.3-2.5,2.7v8.6h-3.3V68h3.3v1.4c0.9-1.1,2.1-1.7,3.5-1.7c1.6,0,3,0.9,3.9,2.2c0.9-1.4,2.4-2.2,4.2-2.2
		C88.3,67.7,90.4,70.1,90.4,73.1z"/>
	<path class="st1" d="M92.7,75c0-4.1,3.2-7.3,7.5-7.3s7.5,3.2,7.5,7.3c0,4.1-3.2,7.3-7.5,7.3S92.7,79.1,92.7,75z M104.4,75
		c0-2.4-1.9-4.2-4.2-4.2c-2.4,0-4.2,1.9-4.2,4.2c0,2.4,1.8,4.2,4.2,4.2C102.6,79.3,104.4,77.4,104.4,75z"/>
	<path class="st1" d="M117.9,75l5.9,7h-4l-3.9-4.6l-3.9,4.6h-4l5.9-7l-5.9-7h4l3.9,4.7l3.9-4.7h4L117.9,75z"/>
</g>
</svg>
