<?xml version="1.0" encoding="utf-8"?>
<!-- Generator: Adobe Illustrator 26.0.2, SVG Export Plug-In . SVG Version: 6.00 Build 0)  -->
<svg version="1.1" id="b8c505dd-fff1-4b52-bdea-741ab559ea55"
	 xmlns="http://www.w3.org/2000/svg" xmlns:xlink="http://www.w3.org/1999/xlink" x="0px" y="0px" viewBox="0 0 152 152"
	 style="enable-background:new 0 0 152 152;" xml:space="preserve">
<style type="text/css">
	.st0{fill:#E85E5C;}
	.st1{fill:#FFFFFF;}
	.st2{fill:#54668C;}
</style>
<path class="st0" d="M10,0h132c5.5,0,10,4.5,10,10v132c0,5.5-4.5,10-10,10H10c-5.5,0-10-4.5-10-10V10C0,4.5,4.5,0,10,0z"/>
<path class="st1" d="M98.5,65.2v30.3H83.7V68.3c0.1-3.9-2.9-7.2-6.9-7.4c-0.2,0-0.3,0-0.5,0c-4.1-0.2-7.6,3-7.8,7.2
	c0,0.1,0,0.1,0,0.2v27.1h-15V48.7h15v5.8c3.4-4.3,8.6-6.8,14-6.8C91.7,47.7,98.5,54.8,98.5,65.2z"/>
<path class="st2" d="M57.4,79.8l4.2,1.6c0,0,0,0.8,0.3,1c0.6,0.2,1.3,0.1,1.8-0.1c0.2-0.1,0.3-0.1,0.5,0l3.4,0.9c0,0,0.1,0,0.1,0
	c0,0,0.4-0.1,0.7-0.3s0.1-0.3,0.1-0.3l-1.2-1.2l8.9-3.5l5.1,0.2c0.4,0,0.7,0.1,1.1,0.1l9.8,2.1c0.4,0.1,0.7,0,1-0.2l1.6-1
	c0.1-0.1,0.2-0.3,0.1-0.4c0,0-0.1-0.1-0.1-0.1l-6.4-3.1c0,0,0.6-1.3-0.2-1.9s-1.2-0.5-1.7-0.3s-1.1,0.6-1.1,0.6l-1-0.4l3.6-2.4
	c0,0,6.4-4.4,5.4-5.9S89,63.1,85.9,64s-8.3,4.4-9.7,5.4c0,0-0.9-1-1.8-0.6c-0.7,0.4-1.4,0.9-2.1,1.4l-12.2-1.5
	c-0.3,0-0.6,0.1-0.9,0.2l-1.9,1.5c-0.1,0-0.1,0.1,0,0.2c0,0,0,0,0.1,0l9,2.3l3.1,1.4l-4.6,2.8c-0.1,0.1-0.3,0.1-0.5,0l-4.1-1.9
	c-0.2-0.1-0.5-0.1-0.7,0l-1.1,0.7c-0.1,0.1-0.2,0.3-0.1,0.4c0,0,0,0,0,0l2.2,2.3l-2.1-0.2c-0.1,0-0.3,0-0.4,0.1l-0.9,0.3
	C56.9,79.4,57,79.6,57.4,79.8z"/>
<path class="st1" d="M60.1,76.1l3.7,1.8c0.4,0.2,0.9,0.3,1.4,0.1c0.2-0.1,0.4-0.2,0.6-0.3c0.8-0.5,4.4-2.7,4.4-2.7l1.4,0.4l-6.1,3.3
	c0,0-2.4,1.2-3.3,0.5s-2.7-2.7-2.7-2.7L60.1,76.1z"/>
<path class="st1" d="M73.7,70.2l-1.2,0.7c-0.1,0.1-0.3,0.2-0.4,0.4c-0.3,0.5-0.2,1.2,0.2,1.6l1.7-1.1C73.7,71.3,73.6,70.7,73.7,70.2
	z"/>
<path class="st1" d="M76.2,70.4c0,0,5.5-4.1,8.9-5.4c1.9-0.8,3.9-0.9,5.9-0.4c0,0-2.1,0-6.3,2.4c-2,1.1-4,2.3-5.8,3.7L76.2,70.4z"/>
</svg>
