<svg id="a0a1c47d-2f85-420a-94ad-f9e3a396a3bd" data-name="Calque 1" xmlns="http://www.w3.org/2000/svg" viewBox="0 0 152 152"><rect width="152" height="152" rx="10" style="fill:#9abeff"/><circle cx="76" cy="76" r="47.285" style="fill:#dc505e"/><path d="M35.875,74.017a8.634,8.634,0,1,1,8.634,8.633A8.638,8.638,0,0,1,35.875,74.017Zm14.548,0a5.914,5.914,0,1,0-5.914,5.914A5.828,5.828,0,0,0,50.423,74.017Z" style="fill:#fff"/><path d="M56.113,76.96V65.607H58.86V76.483a3.922,3.922,0,0,0,7.821,0V65.607h2.747V76.96c0,3.251-2.86,5.69-6.672,5.69S56.113,80.211,56.113,76.96Z" style="fill:#fff"/><path d="M73.183,65.607H75.93V82.426H73.183Z" style="fill:#fff"/><path d="M96.42,73.344v.673A8.681,8.681,0,1,1,95.354,69.9L93,71.158a5.938,5.938,0,1,0-5.214,8.773,5.8,5.8,0,0,0,5.69-4.288H87.758v-2.3Z" style="fill:#fff"/><path d="M98.858,74.017a8.634,8.634,0,1,1,8.634,8.633A8.637,8.637,0,0,1,98.858,74.017Zm14.548,0a5.915,5.915,0,1,0-5.914,5.914A5.828,5.828,0,0,0,113.406,74.017Z" style="fill:#fff"/></svg>