<?xml version="1.0" encoding="utf-8"?>
<!-- Generator: Adobe Illustrator 26.0.2, SVG Export Plug-In . SVG Version: 6.00 Build 0)  -->
<svg version="1.1" id="a7ed6f29-7214-429f-a934-d551448db764"
	 xmlns="http://www.w3.org/2000/svg" xmlns:xlink="http://www.w3.org/1999/xlink" x="0px" y="0px" viewBox="0 0 152 152"
	 style="enable-background:new 0 0 152 152;" xml:space="preserve">
<style type="text/css">
	.st0{fill:#56595B;}
	.st1{fill:#FFFFFF;}
	.st2{fill:#91BEFF;}
</style>
<path class="st0" d="M10,0h132c5.5,0,10,4.5,10,10v132c0,5.5-4.5,10-10,10H10c-5.5,0-10-4.5-10-10V10C0,4.5,4.5,0,10,0z"/>
<path class="st1" d="M152,34.7c-22.8-0.1-41.4,18.3-41.5,41.1s18.3,41.4,41.1,41.5c0.1,0,0.3,0,0.4,0"/>
<path class="st2" d="M61.7,34.7H0v82.6h61.7c0.1,0,0.3,0,0.4,0c22.8-0.1,41.2-18.7,41.1-41.5S84.5,34.6,61.7,34.7z M61.7,106
	c-16.6,0-30-13.4-30-30s13.4-30,30-30s30,13.4,30,30S78.3,106,61.7,106z"/>
</svg>
