<?xml version="1.0" encoding="utf-8"?>
<!-- Generator: Adobe Illustrator 26.0.2, SVG Export Plug-In . SVG Version: 6.00 Build 0)  -->
<svg version="1.1" id="a072f473-20f6-4841-8647-ed2473803b6f"
	 xmlns="http://www.w3.org/2000/svg" xmlns:xlink="http://www.w3.org/1999/xlink" x="0px" y="0px" viewBox="0 0 152 152"
	 style="enable-background:new 0 0 152 152;" xml:space="preserve">
<style type="text/css">
	.st0{fill:#FFFFFF;}
	.st1{fill:#54688C;}
	.st2{fill:#FF837D;}
	.st3{fill:#9ABEFF;}
</style>
<path class="st0" d="M10,0h132c5.5,0,10,4.5,10,10v132c0,5.5-4.5,10-10,10H10c-5.5,0-10-4.5-10-10V10C0,4.5,4.5,0,10,0z"/>
<ellipse class="st1" cx="76" cy="73" rx="7.6" ry="14.8"/>
<path class="st2" d="M86.6,54.8c-3.8,0-7.5,1.2-10.6,3.4c8.2,5.8,10.1,17.1,4.2,25.3c-1.2,1.6-2.6,3.1-4.2,4.2
	c8.1,5.8,19.5,4,25.3-4.2c2.2-3.1,3.4-6.8,3.4-10.6V54.8H86.6z"/>
<path class="st3" d="M68.4,73c0-5.9,2.8-11.4,7.6-14.8c-8.1-5.8-19.5-4-25.3,4.2c-2.2,3.1-3.4,6.8-3.4,10.6v18.2h18.2
	c3.8,0,7.5-1.2,10.6-3.4C71.2,84.3,68.4,78.8,68.4,73z"/>
</svg>
