<svg id="bed768cd-523a-4061-99a5-0ac3296575e0" data-name="Calque 1" xmlns="http://www.w3.org/2000/svg" viewBox="0 0 152 152"><rect width="152" height="152" rx="10" style="fill:#fff"/><path d="M51.392,67.258l-6.4,15.893H41.418L35.061,67.258h4.013l4.133,11.8,4.171-11.8Z" style="fill:#56595b"/><path d="M68.752,75.8H55.6a4.807,4.807,0,0,0,9.139,1.788h3.775a8.094,8.094,0,0,1-8.185,5.88c-4.928,0-8.623-3.5-8.623-8.264a8.213,8.213,0,0,1,8.583-8.265,8.152,8.152,0,0,1,8.5,8.185ZM55.918,73.1h8.741a4.443,4.443,0,0,0-4.33-2.98A4.527,4.527,0,0,0,55.918,73.1Zm5.523-7.947H58.978l3.5-5.921h3.854Z" style="fill:#56595b"/><path d="M71.57,54.861h3.774v28.29H71.57Z" style="fill:#56595b"/><path d="M78.2,75.205a8.547,8.547,0,1,1,8.542,8.264A8.226,8.226,0,0,1,78.2,75.205Zm13.311,0a4.768,4.768,0,1,0-4.769,4.768A4.732,4.732,0,0,0,91.515,75.205Z" style="fill:#56595b"/><path d="M96.915,68.45l2.662-9.576h3.536L99.141,68.45Z" style="fill:#56595b"/><polygon points="104.625 67.258 112.929 67.258 108.758 79.058 104.625 67.258" style="fill:#e85e5c"/><polygon points="116.942 67.258 110.546 83.151 116.942 83.151 116.942 67.258" style="fill:#e85e5c"/><polygon points="100.613 67.258 107.01 83.151 100.613 83.151 100.613 67.258" style="fill:#e85e5c"/></svg>